<?xml version="1.0" standalone="no"?>
<!DOCTYPE svg PUBLIC "-//W3C//DTD SVG 20010904//EN"
 "http://www.w3.org/TR/2001/REC-SVG-20010904/DTD/svg10.dtd">
<svg version="1.0" xmlns="http://www.w3.org/2000/svg"
 width="700.000000pt" height="700.000000pt" viewBox="0 0 700.000000 700.000000"
 preserveAspectRatio="xMidYMid meet">
<metadata>
Created by potrace 1.14, written by Peter Selinger 2001-2017
</metadata>
<g transform="translate(0.000000,700.000000) scale(0.100000,-0.100000)"
fill="#000000" stroke="none">
<path d="M3278 6995 c-1 -1 -42 -5 -89 -9 -47 -4 -95 -8 -105 -10 -10 -2 -41
-7 -69 -10 -335 -44 -715 -158 -1030 -312 -180 -87 -448 -247 -555 -331 -8 -6
-51 -40 -95 -74 -353 -275 -673 -651 -897 -1054 -49 -87 -148 -289 -148 -301
0 -2 -9 -23 -20 -47 -57 -123 -157 -435 -186 -582 -2 -11 -10 -54 -19 -95 -22
-115 -30 -160 -41 -255 -26 -230 -26 -667 1 -826 2 -13 6 -46 9 -74 9 -78 22
-152 51 -285 21 -96 91 -339 114 -395 5 -11 25 -65 46 -120 63 -166 249 -531
312 -610 4 -6 34 -49 65 -95 52 -78 214 -286 263 -336 198 -208 293 -297 445
-419 92 -74 370 -265 386 -265 4 0 15 -6 23 -14 29 -25 304 -161 431 -213 69
-28 173 -67 233 -87 171 -58 424 -117 606 -142 25 -3 57 -8 71 -10 163 -25
682 -25 842 1 13 2 46 7 73 10 72 10 86 12 120 19 17 3 44 8 60 11 194 37 411
101 622 184 130 52 418 192 473 231 15 11 33 20 39 20 6 0 11 5 11 10 0 6 5
10 10 10 15 0 220 141 330 227 152 118 324 280 450 422 36 41 70 79 76 85 6 6
48 61 94 121 150 197 277 405 383 628 26 53 47 99 47 102 0 2 11 28 24 57 57
127 151 421 182 573 17 81 54 301 59 350 4 33 9 71 11 85 9 47 11 525 3 605
-15 165 -21 220 -24 225 -2 3 -6 30 -10 60 -4 30 -22 123 -40 205 -53 232
-102 385 -197 610 -387 911 -1160 1625 -2103 1943 -168 57 -420 119 -555 137
-19 3 -46 7 -60 10 -13 2 -52 7 -86 11 -33 3 -74 8 -90 10 -32 5 -540 14 -546
9z m1052 -1675 c123 -29 227 -89 327 -190 175 -177 280 -435 288 -710 3 -109
-38 -236 -112 -347 -118 -180 -335 -351 -528 -418 -74 -25 -99 -28 -224 -29
l-115 -1 -117 175 c-65 96 -118 178 -119 183 0 4 111 7 246 7 l246 0 58 35
c88 53 153 126 199 219 78 162 77 320 -4 491 -37 77 -79 127 -146 172 -87 58
-70 57 -856 58 -508 1 -723 -2 -726 -9 -1 -6 -3 -116 -2 -245 l0 -234 52 -18
c67 -23 230 -104 318 -159 421 -263 689 -618 771 -1020 18 -89 23 -262 10
-342 -7 -44 -12 -50 -86 -105 -44 -32 -78 -61 -77 -66 1 -4 36 -33 77 -65 l75
-58 1 -486 c0 -432 -2 -487 -15 -490 -29 -6 -965 -1 -1004 6 -171 28 -351 165
-464 352 -66 109 -65 101 -65 622 0 260 1 475 3 477 2 2 43 -33 89 -78 47 -45
104 -98 125 -117 42 -37 177 -152 185 -158 2 -1 5 -101 6 -220 2 -232 11 -298
60 -408 30 -68 91 -130 141 -143 21 -5 156 -9 305 -9 l267 1 1 246 0 246 -123
82 c-67 45 -188 120 -269 167 -172 101 -257 159 -335 229 -247 224 -374 464
-437 832 -24 136 -26 182 -10 235 20 68 81 126 158 153 l35 12 -99 59 -100 58
-1 42 c-3 217 -1 965 4 972 3 5 419 9 969 8 755 0 975 -3 1018 -14z"/>
<path d="M2813 3954 c-29 -19 -57 -42 -62 -52 -14 -26 15 -201 51 -310 17 -52
49 -121 70 -155 48 -74 216 -242 383 -382 33 -27 62 -52 65 -55 30 -31 37 -30
118 10 l81 40 -5 38 c-18 154 -76 366 -132 482 -61 128 -214 262 -435 379 -42
22 -78 41 -80 40 -1 0 -25 -16 -54 -35z"/>
</g>
</svg>
