<svg width="36" height="36" viewBox="0 0 36 36" fill="none" xmlns="http://www.w3.org/2000/svg">
<g opacity="0.55">
<path fill-rule="evenodd" clip-rule="evenodd" d="M25.4102 3.37306C24.7878 2.82634 23.84 2.88769 23.2933 3.51009C22.7466 4.1325 22.808 5.08026 23.4304 5.62698C25.6242 7.55401 27.0023 10.3668 27.0023 13.5C27.0023 19.2922 22.2823 24 16.4447 24C12.5353 24 9.1232 21.888 7.29709 18.7462C6.88079 18.03 5.96269 17.7869 5.24646 18.2032C4.53023 18.6195 4.2871 19.5376 4.7034 20.2538C6.82703 23.9074 10.6239 26.4791 15.0506 26.9295V30H10.5218C9.69341 30 9.02183 30.6716 9.02183 31.5C9.02183 32.3284 9.69341 33 10.5218 33H16.5506H22.5794C23.4078 33 24.0794 32.3284 24.0794 31.5C24.0794 30.6716 23.4078 30 22.5794 30H18.0506V26.9063C24.7762 26.1156 30.0023 20.4207 30.0023 13.5C30.0023 9.4651 28.2229 5.84369 25.4102 3.37306ZM10.4087 13.5C10.4087 10.1931 13.1044 7.50002 16.4447 7.50002C19.7851 7.50002 22.4807 10.1931 22.4807 13.5C22.4807 16.807 19.7851 19.5 16.4447 19.5C13.1044 19.5 10.4087 16.807 10.4087 13.5ZM16.4447 4.50002C11.4611 4.50002 7.40875 8.5227 7.40875 13.5C7.40875 18.4773 11.4611 22.5 16.4447 22.5C21.4284 22.5 25.4807 18.4773 25.4807 13.5C25.4807 8.5227 21.4284 4.50002 16.4447 4.50002Z" fill="#282725"/>
</g>
</svg>
