<svg width="37" height="36" viewBox="0 0 37 36" fill="none" xmlns="http://www.w3.org/2000/svg">
<g opacity="0.55">
<path fill-rule="evenodd" clip-rule="evenodd" d="M21.5304 3.76549C22.5889 3.26262 23.7324 3 24.8934 3C26.0545 3 27.198 3.26262 28.2565 3.76549C29.3142 4.26794 30.2608 4.99756 31.0487 5.90129C31.8364 6.80414 32.4523 7.86538 32.8696 9.0201C33.287 10.175 33.5 11.4072 33.5 12.6478C33.5 13.8884 33.287 15.1206 32.8696 16.2755C32.4522 17.4304 31.8362 18.4919 31.0482 19.3948L19.6301 32.486C19.3452 32.8126 18.933 33 18.4997 33C18.0663 33 17.6541 32.8126 17.3692 32.486L5.95083 19.3946C4.36345 17.5746 3.5 15.1451 3.5 12.6478C3.5 10.1505 4.36345 7.72099 5.95083 5.90103C7.5439 4.07455 9.75211 3.00079 12.1059 3.00079C14.4596 3.00079 16.6678 4.07455 18.2609 5.90103C18.3077 5.95467 18.3506 6.01157 18.3893 6.07131L18.4997 6.2416L18.61 6.07131C18.6486 6.01167 18.6915 5.95486 18.7382 5.90129C19.526 4.99756 20.4727 4.26794 21.5304 3.76549ZM24.8934 6C24.1881 6 23.4834 6.15899 22.8177 6.47526C22.1788 6.77873 21.5829 7.22391 21.0665 7.79713L19.7585 9.81569C19.482 10.2424 19.0081 10.5 18.4997 10.5C17.9912 10.5 17.5173 10.2424 17.2408 9.81569L15.9329 7.79726C14.8696 6.61734 13.492 6.00079 12.1059 6.00079C10.6904 6.00079 9.28384 6.64372 8.21169 7.87296C7.13386 9.10872 6.5 10.8237 6.5 12.6478C6.5 14.4719 7.13386 16.1869 8.21169 17.4226L18.4997 29.218L28.7876 17.4226C29.3198 16.8128 29.7511 16.0778 30.0482 15.2559C30.3453 14.4338 30.5 13.5471 30.5 12.6478C30.5 11.7485 30.3453 10.8618 30.0482 10.0398C29.7511 9.21777 29.32 8.48305 28.7878 7.87323C28.2563 7.26346 27.6358 6.79194 26.9692 6.47526C26.3035 6.15899 25.5988 6 24.8934 6Z" fill="#282725"/>
</g>
</svg>
