<svg width="37" height="36" viewBox="0 0 37 36" fill="none" xmlns="http://www.w3.org/2000/svg">
<g opacity="0.55">
<path fill-rule="evenodd" clip-rule="evenodd" d="M15.1369 9.75001C15.1369 8.35056 15.54 7.4238 16.0718 6.87044C16.5749 6.34687 17.3415 6 18.5 6C19.6586 6 20.4251 6.34687 20.9282 6.87044C21.46 7.4238 21.8631 8.35055 21.8631 9.75V10.5H15.1369V9.75001ZM11.7737 13.5V16.5C11.7737 17.3284 12.5266 18 13.4553 18C14.384 18 15.1369 17.3284 15.1369 16.5V13.5H21.8631V16.5C21.8631 17.3284 22.616 18 23.5447 18C24.4734 18 25.2263 17.3284 25.2263 16.5V13.5H28.7138L30.1367 30H6.86334L8.2862 13.5H11.7737ZM11.7737 10.5V9.75C11.7737 7.86745 12.3161 6.1692 13.5183 4.91806C14.7491 3.63713 16.5049 3 18.5 3C20.4951 3 22.2509 3.63713 23.4817 4.91806C24.6839 6.1692 25.2263 7.86745 25.2263 9.75V10.5H28.7138C30.4712 10.5 31.9322 11.7069 32.067 13.2699L33.4899 29.7699C33.6401 31.5123 32.0957 33 30.1367 33H6.86334C4.90427 33 3.35985 31.5123 3.51011 29.7699L4.93297 13.2699C5.06775 11.7069 6.52884 10.5 8.2862 10.5H11.7737Z" fill="#282725"/>
</g>
</svg>
