<svg width="36" height="36" viewBox="0 0 36 36" fill="none" xmlns="http://www.w3.org/2000/svg">
<g opacity="0.55">
<path fill-rule="evenodd" clip-rule="evenodd" d="M7.24377 6.15836C7.75195 5.14201 8.79074 4.5 9.92705 4.5H26.0729C27.2093 4.5 28.2481 5.14201 28.7562 6.15836L32.6833 14.0125C32.8916 14.429 33 14.8884 33 15.3541V16.5V27V28.5C33 30.1569 31.6569 31.5 30 31.5C28.3431 31.5 27 30.1569 27 28.5H7.5V29.25C7.5 30.4926 6.49264 31.5 5.25 31.5C4.00736 31.5 3 30.4926 3 29.25V27V16.5V15.3541C3 14.8884 3.10844 14.429 3.31672 14.0125L7.24377 6.15836ZM6 25.5H28.5H30V18H6V25.5ZM6.17705 15H29.8229L26.0729 7.5L9.92705 7.5L6.17705 15ZM12 21.75C12 22.9926 10.9926 24 9.75 24C8.50736 24 7.5 22.9926 7.5 21.75C7.5 20.5074 8.50736 19.5 9.75 19.5C10.9926 19.5 12 20.5074 12 21.75ZM26.25 24C27.4926 24 28.5 22.9926 28.5 21.75C28.5 20.5074 27.4926 19.5 26.25 19.5C25.0074 19.5 24 20.5074 24 21.75C24 22.9926 25.0074 24 26.25 24Z" fill="#282725"/>
</g>
</svg>
