<svg width="37" height="36" viewBox="0 0 37 36" fill="none" xmlns="http://www.w3.org/2000/svg">
<g opacity="0.55">
<path fill-rule="evenodd" clip-rule="evenodd" d="M20.4433 3.71451C19.3229 2.76183 17.6771 2.76183 16.5567 3.71451L6.05667 12.6426C5.38631 13.2126 5 14.0481 5 14.9281V30.002C5 31.6588 6.34315 33.002 8 33.002H29C30.6569 33.002 32 31.6588 32 30.002V14.9281C32 14.0481 31.6137 13.2126 30.9433 12.6426L20.4433 3.71451ZM18.5 6L29 14.9281V30.002H23.0044V24.3269C23.0044 22.6701 21.6613 21.3269 20.0044 21.3269H17C15.3431 21.3269 14 22.6701 14 24.3269V30.002H8V14.9281L18.5 6ZM17 30.002H20.0044V24.3269L17 24.3269V30.002Z" fill="#282725"/>
</g>
</svg>
