<svg width="37" height="36" viewBox="0 0 37 36" fill="none" xmlns="http://www.w3.org/2000/svg">
<g opacity="0.55">
<path fill-rule="evenodd" clip-rule="evenodd" d="M3.5 9C3.5 7.34314 4.84315 6 6.5 6H30.5C32.1569 6 33.5 7.34315 33.5 9V12C33.5 13.6569 32.1569 15 30.5 15V27C30.5 28.6569 29.1569 30 27.5 30H9.5C7.84315 30 6.5 28.6569 6.5 27V15C4.84315 15 3.5 13.6569 3.5 12V9ZM9.5 15H27.5L27.5 27H9.5V15ZM30.5 12H27.5H9.5H6.5V9H30.5V12ZM15.5 19.5C14.6716 19.5 14 20.1716 14 21C14 21.8284 14.6716 22.5 15.5 22.5H22.25C23.0784 22.5 23.75 21.8284 23.75 21C23.75 20.1716 23.0784 19.5 22.25 19.5H15.5Z" fill="#282725"/>
</g>
</svg>
