<svg width="36" height="36" viewBox="0 0 36 36" fill="none" xmlns="http://www.w3.org/2000/svg">
<g opacity="0.55">
<path fill-rule="evenodd" clip-rule="evenodd" d="M27 7.5C27 9.15685 25.6569 10.5 24 10.5C22.3431 10.5 21 9.15685 21 7.5C21 5.84315 22.3431 4.5 24 4.5C25.6569 4.5 27 5.84315 27 7.5ZM16.1619 16.6988L18.4524 18.6621C19.1173 19.2321 19.5 20.0641 19.5 20.9399V27C19.5 27.8284 18.8284 28.5 18 28.5C17.1716 28.5 16.5 27.8284 16.5 27V20.9399L12.715 17.6956C11.6383 16.7727 11.3069 15.1505 12.1448 13.8727C12.7697 12.9198 13.6114 11.7802 14.5251 10.8598C14.9816 10.4 15.4918 9.95831 16.0354 9.62325C16.5649 9.29679 17.2414 9 18 9C19.1564 9 20.1398 9.72905 20.7924 10.2768C21.2611 10.6702 21.7833 11.1758 22.2785 11.6553L22.2785 11.6554C22.516 11.8853 22.7472 12.1093 22.9634 12.3119C23.6956 12.9983 24.3766 13.5665 25.0425 13.9272C25.6884 14.277 26.2176 14.3768 26.7058 14.2791C27.5182 14.1167 28.3084 14.6435 28.4709 15.4558C28.6333 16.2682 28.1065 17.0584 27.2942 17.2209C25.9074 17.4982 24.6553 17.1292 23.6137 16.565C22.5921 16.0117 21.6794 15.2204 20.9116 14.5006C20.6056 14.2137 20.3315 13.9477 20.0766 13.7004L20.0762 13.6999L20.0761 13.6999L20.0761 13.6999C19.7959 13.4279 19.5388 13.1784 19.2876 12.948L16.1619 16.6988ZM9 22.5C7.34315 22.5 6 23.8431 6 25.5C6 27.1569 7.34315 28.5 9 28.5C10.6569 28.5 12 27.1569 12 25.5C12 23.8431 10.6569 22.5 9 22.5ZM3 25.5C3 22.1863 5.68629 19.5 9 19.5C12.3137 19.5 15 22.1863 15 25.5C15 28.8137 12.3137 31.5 9 31.5C5.68629 31.5 3 28.8137 3 25.5ZM27 22.5C25.3431 22.5 24 23.8431 24 25.5C24 27.1569 25.3431 28.5 27 28.5C28.6569 28.5 30 27.1569 30 25.5C30 23.8431 28.6569 22.5 27 22.5ZM21 25.5C21 22.1863 23.6863 19.5 27 19.5C30.3137 19.5 33 22.1863 33 25.5C33 28.8137 30.3137 31.5 27 31.5C23.6863 31.5 21 28.8137 21 25.5Z" fill="#282725"/>
</g>
</svg>
