<svg width="36" height="36" viewBox="0 0 36 36" fill="none" xmlns="http://www.w3.org/2000/svg">
<g opacity="0.55">
<path fill-rule="evenodd" clip-rule="evenodd" d="M22.4298 12C22.4298 16.9706 18.4003 21 13.4298 21C8.45922 21 4.42979 16.9706 4.42979 12C4.42979 7.02944 8.45922 3 13.4298 3C18.4003 3 22.4298 7.02944 22.4298 12ZM13.4298 18C16.7435 18 19.4298 15.3137 19.4298 12C19.4298 8.68629 16.7435 6 13.4298 6C10.1161 6 7.42979 8.68629 7.42979 12C7.42979 15.3137 10.1161 18 13.4298 18ZM7.46721 26.5318C6.08846 27.1736 6 27.7336 6 27.75V27.761V27.772V27.783V27.7939V27.8049V27.8159V27.8269V27.8379V27.8489V27.8599V27.8708V27.8818V27.8928V27.9038V27.9147V27.9257V27.9367V27.9477V27.9586V27.9696V27.9806V27.9916V28.0025V28.0135V28.0244V28.0354V28.0464V28.0573V28.0683V28.0792V28.0902V28.1011V28.112V28.123V28.1339V28.1449V28.1558V28.1667V28.1776V28.1886V28.1995V28.2104V28.2213V28.2322V28.2431V28.254V28.2649V28.2758V28.2867V28.2976V28.3084V28.3193V28.3302V28.3411V28.3519V28.3628V28.3736V28.3845V28.3953V28.4062V28.417V28.4278V28.4386V28.4495V28.4603V28.4711V28.4819V28.4927V28.5035V28.5143V28.525V28.5358V28.5466V28.5573V28.5681V28.5788V28.5896V28.6003V28.611V28.6218V28.6325V28.6432V28.6539V28.6646V28.6753V28.6859V28.6966V28.7073V28.7179V28.7286V28.7392V28.7499V28.7605V28.7711V28.7817V28.7923V28.8029V28.8135V28.8241V28.8347V28.8452V28.8558V28.8663V28.8769V28.8874V28.8979V28.9084V28.9189V28.9294V28.9399V28.9504V28.9608V28.9713V28.9817V28.9922V29.0026V29.013V29.0234V29.0338V29.0442V29.0546V29.065V29.0753V29.0857V29.096V29.1063V29.1166V29.127V29.1372V29.1475V29.1578V29.1681V29.1783V29.1886V29.1988V29.209V29.2192V29.2294V29.2396V29.2498V29.2599V29.2701V29.2802V29.2903V29.3004V29.3105V29.3206V29.3307V29.3408V29.3508V29.3608V29.3709V29.3809V29.3909V29.4009V29.4108V29.4208V29.4307V29.4407V29.4506V29.4605V29.4704V29.4803V29.4901V29.5V29.5098V29.5197V29.5295V29.5393V29.549V29.5588V29.5686V29.5783V29.588V29.5977V29.6074V29.6171V29.6268V29.6364V29.6461V29.6557V29.6653V29.6749V29.6845V29.694V29.7036V29.7131V29.7226V29.7321V29.7416V29.751V29.7605V29.7699V29.7793V29.7887V29.7981V29.8075V29.8169V29.8262V29.8355V29.8448V29.8541V29.8634V29.8726V29.8818V29.8911V29.9003V29.9094V29.9186V29.9278V29.9369V29.946V29.9551V29.9642V29.9732V29.9823V29.9913V30.0003V30.0093V30.0182V30.0272V30.0361V30.045V30.0539V30.0628V30.0717V30.0805V30.0893V30.0981V30.1069V30.1156V30.1244V30.1331V30.1418V30.1505V30.1592V30.1678V30.1764V30.185V30.1936V30.2022V30.2107V30.2192V30.2277V30.2362V30.2447V30.2531V30.2615V30.2699V30.2783V30.2867V30.295V30.3033V30.3116V30.3199V30.3281V30.3364V30.3446V30.3527V30.3609V30.3691V30.3772V30.3853V30.3933V30.4014V30.4094V30.4174V30.4254V30.4334V30.4413V30.4493V30.4572V30.465V30.4729V30.4807V30.4885V30.4963V30.5041V30.5118V30.5195V30.5272V30.5349V30.5425V30.5501V30.5577V30.5653V30.5728V30.5804V30.5878V30.5953V30.6028V30.6102V30.6176V30.625V30.6323V30.6397V30.647V30.6542V30.6615V30.6687V30.6759V30.6831V30.6902V30.6974V30.7045V30.7115V30.7186V30.7256V30.7326V30.7396V30.7465V30.7535V30.7603V30.7672V30.7741V30.7809V30.7877V30.7944V30.8012V30.8079V30.8145V30.8212V30.8278V30.8344V30.841V30.8475V30.8541V30.8606V30.867V30.8735V30.8799V30.8862V30.8926V30.8989V30.9052V30.9115V30.9177V30.9239V30.9301V30.9363V30.9424V30.9485V30.9546V30.9606V30.9666V30.9726V30.9786V30.9845V30.9904V30.9963V31.0021V31.0079V31.0137V31.0194V31.0252V31.0308V31.0365V31.0421V31.0477V31.0533V31.0588V31.0643V31.0698V31.0753V31.0807V31.0861V31.0914V31.0968V31.1021V31.1073V31.1126V31.1178V31.1229V31.1281V31.1332V31.1383V31.1433V31.1483V31.1533V31.1583V31.1632V31.1681V31.1729V31.1777V31.1825V31.1873V31.192V31.1967V31.2014V31.206V31.2106V31.2152V31.2197V31.2242V31.2286V31.2331V31.2375V31.2418V31.2462V31.2505V31.2547V31.259V31.2632V31.2673V31.2714V31.2755V31.2796V31.2836V31.2876V31.2916V31.2955V31.2994V31.3032V31.3071V31.3109V31.3146V31.3183V31.322V31.3256V31.3293V31.3328V31.3364V31.3399V31.3434V31.3468V31.3502V31.3535V31.3569V31.3602V31.3634V31.3666V31.3698V31.373V31.3761V31.3792V31.3822V31.3852V31.3882V31.3911V31.394V31.3968V31.3996V31.4024V31.4052V31.4079V31.4105V31.4132V31.4158V31.4183V31.4208V31.4233V31.4258V31.4282V31.4305V31.4329V31.4352V31.4374V31.4396V31.4418V31.4439V31.446V31.4481V31.4501V31.4521V31.4541V31.456V31.4578V31.4596V31.4614V31.4632V31.4649V31.4666V31.4682V31.4698V31.4713V31.4728V31.4743V31.4757V31.4771V31.4785V31.4798V31.4811V31.4823V31.4835V31.4846V31.4857V31.4868V31.4878V31.4888V31.4898V31.4907V31.4915V31.4923V31.4931V31.4939V31.4946V31.4952V31.4958V31.4964V31.4969V31.4974V31.4979V31.4983V31.4986V31.499V31.4992V31.4995V31.4997V31.4998V31.4999V31.5C6 32.3284 5.32843 33 4.5 33C3.67157 33 3 32.3284 3 31.5V31.4999V31.4998V31.4997V31.4995V31.4992V31.499V31.4986V31.4983V31.4979V31.4974V31.4969V31.4964V31.4958V31.4952V31.4946V31.4939V31.4931V31.4923V31.4915V31.4907V31.4898V31.4888V31.4878V31.4868V31.4857V31.4846V31.4835V31.4823V31.4811V31.4798V31.4785V31.4771V31.4757V31.4743V31.4728V31.4713V31.4698V31.4682V31.4666V31.4649V31.4632V31.4614V31.4596V31.4578V31.456V31.4541V31.4521V31.4501V31.4481V31.446V31.4439V31.4418V31.4396V31.4374V31.4352V31.4329V31.4305V31.4282V31.4258V31.4233V31.4208V31.4183V31.4158V31.4132V31.4105V31.4079V31.4052V31.4024V31.3996V31.3968V31.394V31.3911V31.3882V31.3852V31.3822V31.3792V31.3761V31.373V31.3698V31.3666V31.3634V31.3602V31.3569V31.3535V31.3502V31.3468V31.3434V31.3399V31.3364V31.3328V31.3293V31.3256V31.322V31.3183V31.3146V31.3109V31.3071V31.3032V31.2994V31.2955V31.2916V31.2876V31.2836V31.2796V31.2755V31.2714V31.2673V31.2632V31.259V31.2547V31.2505V31.2462V31.2418V31.2375V31.2331V31.2286V31.2242V31.2197V31.2152V31.2106V31.206V31.2014V31.1967V31.192V31.1873V31.1825V31.1777V31.1729V31.1681V31.1632V31.1583V31.1533V31.1483V31.1433V31.1383V31.1332V31.1281V31.1229V31.1178V31.1126V31.1073V31.1021V31.0968V31.0914V31.0861V31.0807V31.0753V31.0698V31.0643V31.0588V31.0533V31.0477V31.0421V31.0365V31.0308V31.0252V31.0194V31.0137V31.0079V31.0021V30.9963V30.9904V30.9845V30.9786V30.9726V30.9666V30.9606V30.9546V30.9485V30.9424V30.9363V30.9301V30.9239V30.9177V30.9115V30.9052V30.8989V30.8926V30.8862V30.8799V30.8735V30.867V30.8606V30.8541V30.8475V30.841V30.8344V30.8278V30.8212V30.8145V30.8079V30.8012V30.7944V30.7877V30.7809V30.7741V30.7672V30.7603V30.7535V30.7465V30.7396V30.7326V30.7256V30.7186V30.7115V30.7045V30.6974V30.6902V30.6831V30.6759V30.6687V30.6615V30.6542V30.647V30.6397V30.6323V30.625V30.6176V30.6102V30.6028V30.5953V30.5878V30.5804V30.5728V30.5653V30.5577V30.5501V30.5425V30.5349V30.5272V30.5195V30.5118V30.5041V30.4963V30.4885V30.4807V30.4729V30.465V30.4572V30.4493V30.4413V30.4334V30.4254V30.4174V30.4094V30.4014V30.3933V30.3853V30.3772V30.3691V30.3609V30.3527V30.3446V30.3364V30.3281V30.3199V30.3116V30.3033V30.295V30.2867V30.2783V30.2699V30.2615V30.2531V30.2447V30.2362V30.2277V30.2192V30.2107V30.2022V30.1936V30.185V30.1764V30.1678V30.1592V30.1505V30.1418V30.1331V30.1244V30.1156V30.1069V30.0981V30.0893V30.0805V30.0717V30.0628V30.0539V30.045V30.0361V30.0272V30.0182V30.0093V30.0003V29.9913V29.9823V29.9732V29.9642V29.9551V29.946V29.9369V29.9278V29.9186V29.9094V29.9003V29.8911V29.8818V29.8726V29.8634V29.8541V29.8448V29.8355V29.8262V29.8169V29.8075V29.7981V29.7887V29.7793V29.7699V29.7605V29.751V29.7416V29.7321V29.7226V29.7131V29.7036V29.694V29.6845V29.6749V29.6653V29.6557V29.6461V29.6364V29.6268V29.6171V29.6074V29.5977V29.588V29.5783V29.5686V29.5588V29.549V29.5393V29.5295V29.5197V29.5098V29.5V29.4901V29.4803V29.4704V29.4605V29.4506V29.4407V29.4307V29.4208V29.4108V29.4009V29.3909V29.3809V29.3709V29.3608V29.3508V29.3408V29.3307V29.3206V29.3105V29.3004V29.2903V29.2802V29.2701V29.2599V29.2498V29.2396V29.2294V29.2192V29.209V29.1988V29.1886V29.1783V29.1681V29.1578V29.1475V29.1372V29.127V29.1166V29.1063V29.096V29.0857V29.0753V29.065V29.0546V29.0442V29.0338V29.0234V29.013V29.0026V28.9922V28.9817V28.9713V28.9608V28.9504V28.9399V28.9294V28.9189V28.9084V28.8979V28.8874V28.8769V28.8663V28.8558V28.8452V28.8347V28.8241V28.8135V28.8029V28.7923V28.7817V28.7711V28.7605V28.7499V28.7392V28.7286V28.7179V28.7073V28.6966V28.6859V28.6753V28.6646V28.6539V28.6432V28.6325V28.6218V28.611V28.6003V28.5896V28.5788V28.5681V28.5573V28.5466V28.5358V28.525V28.5143V28.5035V28.4927V28.4819V28.4711V28.4603V28.4495V28.4386V28.4278V28.417V28.4062V28.3953V28.3845V28.3736V28.3628V28.3519V28.3411V28.3302V28.3193V28.3084V28.2976V28.2867V28.2758V28.2649V28.254V28.2431V28.2322V28.2213V28.2104V28.1995V28.1886V28.1776V28.1667V28.1558V28.1449V28.1339V28.123V28.112V28.1011V28.0902V28.0792V28.0683V28.0573V28.0464V28.0354V28.0244V28.0135V28.0025V27.9916V27.9806V27.9696V27.9586V27.9477V27.9367V27.9257V27.9147V27.9038V27.8928V27.8818V27.8708V27.8599V27.8489V27.8379V27.8269V27.8159V27.8049V27.7939V27.783V27.772V27.761V27.75C3 25.8914 4.55892 24.5764 6.20119 23.812C7.9626 22.9921 10.39 22.5 13.2894 22.5C16.1887 22.5 18.6161 22.9921 20.3775 23.812C22.0198 24.5764 23.5787 25.8914 23.5787 27.75L23.5787 30.6797V31.3096V31.4542V31.4888V31.4972V31.4993V31.4998V31.5V31.5C23.5787 32.3284 22.9071 33 22.0787 33C21.2503 33 20.5787 32.3284 20.5787 31.5V31.5V31.4998V31.4993V31.4972V31.4888V31.4542V31.3096V30.6797L20.5787 27.75C20.5787 27.7336 20.4902 27.1736 19.1115 26.5318C17.8519 25.9454 15.8846 25.5 13.2894 25.5C10.6941 25.5 8.72682 25.9454 7.46721 26.5318ZM23.583 6.5733C23.583 5.74488 24.2546 5.0733 25.083 5.0733C29.2252 5.0733 32.583 8.43117 32.583 12.5733C32.583 16.7154 29.2252 20.0733 25.083 20.0733C24.2546 20.0733 23.583 19.4017 23.583 18.5733C23.583 17.7449 24.2546 17.0733 25.083 17.0733C27.5683 17.0733 29.583 15.0586 29.583 12.5733C29.583 10.088 27.5683 8.0733 25.083 8.0733C24.2546 8.0733 23.583 7.40173 23.583 6.5733ZM24 24C24 23.1716 24.6716 22.5 25.5 22.5C28.0312 22.5 29.914 23.2078 31.1845 24.3373C32.441 25.4543 33 26.9035 33 28.1667V28.1813V28.1959V28.2104V28.225V28.2394V28.2539V28.2683V28.2826V28.297V28.3112V28.3255V28.3397V28.3539V28.368V28.3821V28.3962V28.4102V28.4242V28.4381V28.4521V28.4659V28.4798V28.4936V28.5073V28.5211V28.5347V28.5484V28.562V28.5756V28.5891V28.6026V28.6161V28.6295V28.6429V28.6563V28.6696V28.6829V28.6961V28.7093V28.7225V28.7356V28.7487V28.7618V28.7748V28.7878V28.8007V28.8137V28.8265V28.8394V28.8522V28.8649V28.8777V28.8904V28.903V28.9157V28.9283V28.9408V28.9533V28.9658V28.9782V28.9907V29.003V29.0154V29.0277V29.0399V29.0522V29.0644V29.0765V29.0886V29.1007V29.1128V29.1248V29.1368V29.1487V29.1606V29.1725V29.1843V29.1961V29.2079V29.2197V29.2313V29.243V29.2546V29.2662V29.2778V29.2893V29.3008V29.3123V29.3237V29.3351V29.3464V29.3577V29.369V29.3802V29.3915V29.4026V29.4138V29.4249V29.4359V29.447V29.458V29.469V29.4799V29.4908V29.5017V29.5125V29.5233V29.534V29.5448V29.5555V29.5661V29.5768V29.5873V29.5979V29.6084V29.6189V29.6294V29.6398V29.6502V29.6605V29.6709V29.6812V29.6914V29.7016V29.7118V29.722V29.7321V29.7422V29.7522V29.7623V29.7722V29.7822V29.7921V29.802V29.8119V29.8217V29.8315V29.8412V29.851V29.8606V29.8703V29.8799V29.8895V29.8991V29.9086V29.9181V29.9275V29.937V29.9464V29.9557V29.9651V29.9744V29.9836V29.9929V30.0021V30.0112V30.0204V30.0295V30.0385V30.0476V30.0566V30.0655V30.0745V30.0834V30.0923V30.1011V30.1099V30.1187V30.1275V30.1362V30.1449V30.1535V30.1621V30.1707V30.1793V30.1878V30.1963V30.2048V30.2132V30.2216V30.23V30.2383V30.2466V30.2549V30.2631V30.2714V30.2795V30.2877V30.2958V30.3039V30.312V30.32V30.328V30.3359V30.3439V30.3518V30.3597V30.3675V30.3753V30.3831V30.3908V30.3985V30.4062V30.4139V30.4215V30.4291V30.4367V30.4442V30.4517V30.4592V30.4666V30.4741V30.4814V30.4888V30.4961V30.5034V30.5107V30.5179V30.5251V30.5323V30.5394V30.5465V30.5536V30.5607V30.5677V30.5747V30.5816V30.5886V30.5955V30.6024V30.6092V30.616V30.6228V30.6296V30.6363V30.643V30.6497V30.6563V30.6629V30.6695V30.676V30.6826V30.6891V30.6955V30.702V30.7084V30.7147V30.7211V30.7274V30.7337V30.74V30.7462V30.7524V30.7586V30.7647V30.7708V30.7769V30.783V30.789V30.795V30.801V30.8069V30.8129V30.8187V30.8246V30.8304V30.8362V30.842V30.8478V30.8535V30.8592V30.8649V30.8705V30.8761V30.8817V30.8872V30.8928V30.8983V30.9037V30.9092V30.9146V30.92V30.9253V30.9307V30.936V30.9412V30.9465V30.9517V30.9569V30.9621V30.9672V30.9723V30.9774V30.9824V30.9875V30.9925V30.9975V31.0024V31.0073V31.0122V31.0171V31.0219V31.0267V31.0315V31.0363V31.041V31.0457V31.0504V31.0551V31.0597V31.0643V31.0689V31.0734V31.0779V31.0824V31.0869V31.0913V31.0957V31.1001V31.1045V31.1088V31.1131V31.1174V31.1217V31.1259V31.1301V31.1343V31.1384V31.1426V31.1467V31.1507V31.1548V31.1588V31.1628V31.1668V31.1707V31.1747V31.1786V31.1824V31.1863V31.1901V31.1939V31.1976V31.2014V31.2051V31.2088V31.2125V31.2161V31.2197V31.2233V31.2269V31.2304V31.2339V31.2374V31.2409V31.2443V31.2478V31.2511V31.2545V31.2579V31.2612V31.2645V31.2677V31.271V31.2742V31.2774V31.2806V31.2837V31.2868V31.2899V31.293V31.296V31.2991V31.3021V31.305V31.308V31.3109V31.3138V31.3167V31.3195V31.3224V31.3252V31.328V31.3307V31.3335V31.3362V31.3389V31.3415V31.3442V31.3468V31.3494V31.3519V31.3545V31.357V31.3595V31.362V31.3644V31.3669V31.3693V31.3716V31.374V31.3763V31.3787V31.3809V31.3832V31.3855V31.3877V31.3899V31.392V31.3942V31.3963V31.3984V31.4005V31.4026V31.4046V31.4066V31.4086V31.4106V31.4125V31.4144V31.4163V31.4182V31.4201V31.4219V31.4237V31.4255V31.4273V31.429V31.4307V31.4325V31.4341V31.4358V31.4374V31.439V31.4406V31.4422V31.4437V31.4453V31.4468V31.4482V31.4497V31.4511V31.4526V31.4539V31.4553V31.4567V31.458V31.4593V31.4606V31.4619V31.4631V31.4643V31.4655V31.4667V31.4679V31.469V31.4701V31.4712V31.4723V31.4733V31.4744V31.4754V31.4764V31.4773V31.4783V31.4792V31.4801V31.481V31.4819V31.4827V31.4835V31.4843V31.4851V31.4859V31.4866V31.4873V31.488V31.4887V31.4894V31.49V31.4907V31.4912V31.4918V31.4924V31.4929V31.4934V31.4939V31.4944V31.4949V31.4953V31.4957V31.4961V31.4965V31.4969V31.4972V31.4975V31.4978V31.4981V31.4984V31.4986V31.4988V31.499V31.4992V31.4994V31.4995V31.4997V31.4998V31.4998V31.4999V31.5V31.5C33 32.3284 32.3284 33 31.5 33C30.6716 33 30 32.3284 30 31.5V31.5V31.4999V31.4998V31.4998V31.4997V31.4995V31.4994V31.4992V31.499V31.4988V31.4986V31.4984V31.4981V31.4978V31.4975V31.4972V31.4969V31.4965V31.4961V31.4957V31.4953V31.4949V31.4944V31.4939V31.4934V31.4929V31.4924V31.4918V31.4912V31.4907V31.49V31.4894V31.4887V31.488V31.4873V31.4866V31.4859V31.4851V31.4843V31.4835V31.4827V31.4819V31.481V31.4801V31.4792V31.4783V31.4773V31.4764V31.4754V31.4744V31.4733V31.4723V31.4712V31.4701V31.469V31.4679V31.4667V31.4655V31.4643V31.4631V31.4619V31.4606V31.4593V31.458V31.4567V31.4553V31.4539V31.4526V31.4511V31.4497V31.4482V31.4468V31.4453V31.4437V31.4422V31.4406V31.439V31.4374V31.4358V31.4341V31.4325V31.4307V31.429V31.4273V31.4255V31.4237V31.4219V31.4201V31.4182V31.4163V31.4144V31.4125V31.4106V31.4086V31.4066V31.4046V31.4026V31.4005V31.3984V31.3963V31.3942V31.392V31.3899V31.3877V31.3855V31.3832V31.3809V31.3787V31.3763V31.374V31.3716V31.3693V31.3669V31.3644V31.362V31.3595V31.357V31.3545V31.3519V31.3494V31.3468V31.3442V31.3415V31.3389V31.3362V31.3335V31.3307V31.328V31.3252V31.3224V31.3195V31.3167V31.3138V31.3109V31.308V31.305V31.3021V31.2991V31.296V31.293V31.2899V31.2868V31.2837V31.2806V31.2774V31.2742V31.271V31.2677V31.2645V31.2612V31.2579V31.2545V31.2511V31.2478V31.2443V31.2409V31.2374V31.2339V31.2304V31.2269V31.2233V31.2197V31.2161V31.2125V31.2088V31.2051V31.2014V31.1976V31.1939V31.1901V31.1863V31.1824V31.1786V31.1747V31.1707V31.1668V31.1628V31.1588V31.1548V31.1507V31.1467V31.1426V31.1384V31.1343V31.1301V31.1259V31.1217V31.1174V31.1131V31.1088V31.1045V31.1001V31.0957V31.0913V31.0869V31.0824V31.0779V31.0734V31.0689V31.0643V31.0597V31.0551V31.0504V31.0457V31.041V31.0363V31.0315V31.0267V31.0219V31.0171V31.0122V31.0073V31.0024V30.9975V30.9925V30.9875V30.9824V30.9774V30.9723V30.9672V30.9621V30.9569V30.9517V30.9465V30.9412V30.936V30.9307V30.9253V30.92V30.9146V30.9092V30.9037V30.8983V30.8928V30.8872V30.8817V30.8761V30.8705V30.8649V30.8592V30.8535V30.8478V30.842V30.8362V30.8304V30.8246V30.8187V30.8129V30.8069V30.801V30.795V30.789V30.783V30.7769V30.7708V30.7647V30.7586V30.7524V30.7462V30.74V30.7337V30.7274V30.7211V30.7147V30.7084V30.702V30.6955V30.6891V30.6826V30.676V30.6695V30.6629V30.6563V30.6497V30.643V30.6363V30.6296V30.6228V30.616V30.6092V30.6024V30.5955V30.5886V30.5816V30.5747V30.5677V30.5607V30.5536V30.5465V30.5394V30.5323V30.5251V30.5179V30.5107V30.5034V30.4961V30.4888V30.4814V30.4741V30.4666V30.4592V30.4517V30.4442V30.4367V30.4291V30.4215V30.4139V30.4062V30.3985V30.3908V30.3831V30.3753V30.3675V30.3597V30.3518V30.3439V30.3359V30.328V30.32V30.312V30.3039V30.2958V30.2877V30.2795V30.2714V30.2631V30.2549V30.2466V30.2383V30.23V30.2216V30.2132V30.2048V30.1963V30.1878V30.1793V30.1707V30.1621V30.1535V30.1449V30.1362V30.1275V30.1187V30.1099V30.1011V30.0923V30.0834V30.0745V30.0655V30.0566V30.0476V30.0385V30.0295V30.0204V30.0112V30.0021V29.9929V29.9836V29.9744V29.9651V29.9557V29.9464V29.937V29.9275V29.9181V29.9086V29.8991V29.8895V29.8799V29.8703V29.8606V29.851V29.8412V29.8315V29.8217V29.8119V29.802V29.7921V29.7822V29.7722V29.7623V29.7522V29.7422V29.7321V29.722V29.7118V29.7016V29.6914V29.6812V29.6709V29.6605V29.6502V29.6398V29.6294V29.6189V29.6084V29.5979V29.5873V29.5768V29.5661V29.5555V29.5448V29.534V29.5233V29.5125V29.5017V29.4908V29.4799V29.469V29.458V29.447V29.4359V29.4249V29.4138V29.4026V29.3915V29.3802V29.369V29.3577V29.3464V29.3351V29.3237V29.3123V29.3008V29.2893V29.2778V29.2662V29.2546V29.243V29.2313V29.2197V29.2079V29.1961V29.1843V29.1725V29.1606V29.1487V29.1368V29.1248V29.1128V29.1007V29.0886V29.0765V29.0644V29.0522V29.0399V29.0277V29.0154V29.003V28.9907V28.9782V28.9658V28.9533V28.9408V28.9283V28.9157V28.903V28.8904V28.8777V28.8649V28.8522V28.8394V28.8265V28.8137V28.8007V28.7878V28.7748V28.7618V28.7487V28.7356V28.7225V28.7093V28.6961V28.6829V28.6696V28.6563V28.6429V28.6295V28.6161V28.6026V28.5891V28.5756V28.562V28.5484V28.5347V28.5211V28.5073V28.4936V28.4798V28.4659V28.4521V28.4381V28.4242V28.4102V28.3962V28.3821V28.368V28.3539V28.3397V28.3255V28.3112V28.297V28.2826V28.2683V28.2539V28.2394V28.225V28.2104V28.1959V28.1813V28.1667C30 27.7632 29.8095 27.129 29.1913 26.5794C28.5871 26.0422 27.4699 25.5 25.5 25.5C24.6716 25.5 24 24.8284 24 24Z" fill="#282725"/>
</g>
</svg>
