<svg width="36" height="36" viewBox="0 0 36 36" fill="none" xmlns="http://www.w3.org/2000/svg">
<g opacity="0.55">
<path fill-rule="evenodd" clip-rule="evenodd" d="M6 18C6 11.3726 11.3726 6 18 6C24.6274 6 30 11.3726 30 18C30 24.6274 24.6274 30 18 30C11.3726 30 6 24.6274 6 18ZM18 3C9.71573 3 3 9.71573 3 18C3 26.2843 9.71573 33 18 33C26.2843 33 33 26.2843 33 18C33 9.71573 26.2843 3 18 3ZM18.6429 13.5C17.1979 13.5 15.7297 14.6489 15.2032 16.5H19.5C20.3284 16.5 21 17.1716 21 18C21 18.8284 20.3284 19.5 19.5 19.5H15.2032C15.7297 21.3511 17.1979 22.5 18.6429 22.5C19.4377 22.5 20.1986 22.1814 20.8326 21.5885C21.4376 21.0226 22.3868 21.0544 22.9527 21.6594C23.5186 22.2645 23.4868 23.2137 22.8817 23.7796C21.7548 24.8335 20.2805 25.5 18.6429 25.5C15.2684 25.5 12.736 22.786 12.1359 19.5H10.5C9.67157 19.5 9 18.8284 9 18C9 17.1716 9.67157 16.5 10.5 16.5H12.1359C12.736 13.214 15.2684 10.5 18.6429 10.5C20.718 10.5 22.5149 11.5647 23.6962 13.1263C24.1961 13.7869 24.0657 14.7277 23.405 15.2275C22.7443 15.7273 21.8036 15.5969 21.3038 14.9363C20.6004 14.0065 19.6397 13.5 18.6429 13.5Z" fill="#282725"/>
</g>
</svg>
