<svg width="36" height="36" viewBox="0 0 36 36" fill="none" xmlns="http://www.w3.org/2000/svg">
<g opacity="0.55">
<path fill-rule="evenodd" clip-rule="evenodd" d="M8.39422 7.25058C8.37357 7.27902 8.31064 7.36742 8.21916 7.55978C8.07217 7.86884 7.91353 8.31266 7.75241 8.89325C7.4314 10.05 7.14683 11.5781 6.90359 13.2756C6.51022 16.0208 6.2407 19.0946 6.08696 21.5143H7.5C7.74728 21.5143 7.96971 21.5175 8.17163 21.5204C9.14416 21.5344 9.64088 21.5415 10.1463 21.1516C10.736 20.6967 11.6363 19.3486 12.0058 15.1679C12.0788 14.3427 12.8069 13.7329 13.6321 13.8058C14.4573 13.8788 15.0671 14.6069 14.9942 15.4321C14.6137 19.7371 13.639 22.2461 11.9787 23.527C10.9217 24.3423 9.70365 24.5168 8.75396 24.5378L7.4771 31.7611C7.3329 32.5769 6.55468 33.1213 5.7389 32.9771C4.92312 32.8329 4.3787 32.0547 4.5229 31.2389L5.7116 24.5143H4.5C4.08954 24.5143 3.69701 24.3461 3.4139 24.0489C3.13079 23.7517 2.98184 23.3514 3.00177 22.9415C3.12821 20.3403 3.43146 16.3566 3.93392 12.8501C4.18442 11.1019 4.49048 9.42857 4.86166 8.09104C5.04663 7.42448 5.25947 6.79795 5.50995 6.27129C5.73894 5.78981 6.09073 5.19044 6.65171 4.80576C7.51227 4.21567 8.84426 3.88873 10.0779 3.67326C11.3934 3.44349 12.9048 3.29444 14.3349 3.19637C17.1986 3 19.8639 3 20.2493 3H20.25C20.8822 3 21.2994 3.36467 21.4143 3.46715C21.5895 3.62346 21.7316 3.80045 21.8359 3.94225C22.0508 4.23416 22.2703 4.60476 22.4779 4.98155C22.8949 5.73843 23.3769 6.73005 23.8357 7.67388L23.8491 7.70135C24.3238 8.67789 24.7739 9.60292 25.1497 10.2851C25.2381 10.4455 25.3163 10.5813 25.3844 10.6939C25.4187 10.6925 25.454 10.6911 25.4904 10.6897C26.0184 10.6687 26.7714 10.6387 27.6592 10.6183C29.0281 10.5867 30.6954 10.58 31.7181 10.7302C32.5124 10.8469 33.0739 11.5683 32.9922 12.367C32.7412 14.8194 32.1984 18.644 30.5219 21.6439C29.6698 23.1686 28.4775 24.5679 26.8001 25.4306C25.5514 26.0728 24.1181 26.3742 22.5 26.2803V31.5C22.5 32.3284 21.8284 33 21 33C20.1716 33 19.5 32.3284 19.5 31.5V24.5571C19.5 24.1026 19.7061 23.6726 20.0604 23.3879C20.4147 23.1032 20.879 22.9945 21.3229 23.0923C23.1398 23.4928 24.4489 23.2663 25.428 22.7628C26.4287 22.2481 27.2427 21.3621 27.9031 20.1804C28.9822 18.2494 29.5226 15.768 29.823 13.6067C29.1889 13.5942 28.4601 13.6006 27.7283 13.6175C27.0024 13.6342 26.2461 13.6628 25.6695 13.6846C25.2217 13.7015 24.8824 13.7143 24.75 13.7143C24.1178 13.7143 23.7006 13.3496 23.5857 13.2471C23.4105 13.0908 23.2684 12.9138 23.1641 12.772C22.9492 12.4801 22.7297 12.1095 22.5221 11.7327C22.1051 10.9759 21.6231 9.98424 21.1643 9.0404L21.1509 9.01293C20.6762 8.0364 20.2261 7.11137 19.8503 6.42917C19.7573 6.26039 19.6755 6.11876 19.6049 6.00285C18.5984 6.01155 16.6193 6.04677 14.5401 6.18934C13.1577 6.28413 11.7629 6.42437 10.594 6.62852C9.40945 6.83542 8.69154 7.07207 8.39422 7.25058Z" fill="#282725"/>
</g>
</svg>
