<svg width="155" height="42" viewBox="0 0 155 42" fill="none" xmlns="http://www.w3.org/2000/svg">
<path fill-rule="evenodd" clip-rule="evenodd" d="M21 42C32.598 42 42 32.598 42 21C42 9.40202 32.598 0 21 0C9.40202 0 0 9.40202 0 21C0 32.598 9.40202 42 21 42ZM16.4711 12.2V15.1333C17.5303 15.4593 20.0888 16.6978 21.8488 19.0444C23.6088 21.3911 23.5599 23.7704 23.3155 24.6667L22.3377 25.4L23.3155 26.1333V32H17.6933C15.4933 32 14.0266 29.5556 14.0266 28.8222V23.2C14.8089 23.9822 15.9822 24.9926 16.4711 25.4V27.3556C16.4711 28.5778 16.9599 30.0444 17.9377 30.0444H21.1155V27.1111C20.6266 26.7037 19.4044 25.95 18.4266 25.4C14.7694 23.3429 14.3183 20.4308 14.0753 18.8622C14.0584 18.7532 14.0425 18.6508 14.0266 18.5556C13.8311 17.3822 14.76 16.9259 15.2489 16.8444L14.0266 16.1111V10H25.2711C27.7155 10 29.6711 12.6889 29.6711 15.6222C29.6711 17.8222 26.7377 20.2667 24.7822 20.2667H23.8044L22.3377 18.0667H25.2711C26.4933 17.5778 27.2266 16.3556 27.2266 15.1333C27.2266 13.9111 26.4933 12.2 24.7822 12.2H16.4711ZM16.4707 18.5567L17.204 18.0679C17.9374 18.3938 19.5507 19.2901 20.1374 20.2678C20.724 21.2456 21.0337 22.9567 21.1151 23.6901L20.1374 24.179C19.73 23.853 18.6707 22.9567 17.6929 21.979C16.7151 21.0012 16.4707 19.2901 16.4707 18.5567Z" fill="#282725" fill-opacity="0.9"/>
<path d="M61.068 27H58.296V14.652H64.254C64.926 14.652 65.544 14.814 66.108 15.138C66.684 15.45 67.14 15.888 67.476 16.452C67.812 17.016 67.98 17.646 67.98 18.342V18.45C67.98 19.134 67.812 19.77 67.476 20.358C67.152 20.934 66.702 21.39 66.126 21.726C65.562 22.062 64.938 22.23 64.254 22.23H61.068V27ZM61.068 20.052H63.606C64.062 20.052 64.44 19.902 64.74 19.602C65.04 19.29 65.19 18.93 65.19 18.522V18.414C65.19 17.994 65.04 17.634 64.74 17.334C64.452 17.022 64.074 16.866 63.606 16.866H61.068V20.052ZM74.3143 20.952C74.3143 20.58 74.2123 20.262 74.0083 19.998C73.8043 19.722 73.4803 19.584 73.0363 19.584C72.6163 19.584 72.2923 19.752 72.0643 20.088C71.8483 20.412 71.7403 20.82 71.7403 21.312V27H69.1483V17.802H71.0923L71.4163 19.152C71.4643 19.02 71.5843 18.834 71.7763 18.594C71.9803 18.354 72.2683 18.132 72.6403 17.928C73.0243 17.724 73.4743 17.622 73.9903 17.622C74.8183 17.622 75.4543 17.88 75.8983 18.396C76.3543 18.912 76.5823 19.596 76.5823 20.448C76.5823 20.628 76.5703 20.808 76.5463 20.988C76.5343 21.168 76.5223 21.294 76.5103 21.366H74.3143V20.952ZM83.229 20.79C83.229 20.382 83.097 20.052 82.833 19.8C82.581 19.548 82.167 19.422 81.591 19.422C81.255 19.422 80.967 19.482 80.727 19.602C80.487 19.71 80.301 19.848 80.169 20.016C80.049 20.184 79.989 20.34 79.989 20.484V20.628H77.451C77.427 20.484 77.415 20.376 77.415 20.304C77.415 19.788 77.583 19.326 77.919 18.918C78.267 18.51 78.747 18.192 79.359 17.964C79.971 17.736 80.673 17.622 81.465 17.622H81.843C83.139 17.622 84.123 17.88 84.795 18.396C85.467 18.9 85.803 19.596 85.803 20.484V24.732C85.803 24.948 85.851 25.11 85.947 25.218C86.055 25.326 86.181 25.38 86.325 25.38C86.445 25.38 86.577 25.356 86.721 25.308C86.865 25.26 86.979 25.218 87.063 25.182V26.802C86.619 27.054 86.091 27.18 85.479 27.18C84.819 27.18 84.315 27.048 83.967 26.784C83.619 26.508 83.415 26.124 83.355 25.632C82.515 26.664 81.483 27.18 80.259 27.18C79.347 27.18 78.597 26.994 78.009 26.622C77.421 26.25 77.127 25.542 77.127 24.498C77.127 23.646 77.367 22.998 77.847 22.554C78.339 22.098 79.017 21.792 79.881 21.636C80.745 21.48 81.861 21.402 83.229 21.402V20.79ZM83.229 22.878C82.089 22.878 81.237 22.992 80.673 23.22C80.121 23.436 79.845 23.796 79.845 24.3C79.845 24.696 79.953 24.978 80.169 25.146C80.397 25.302 80.739 25.38 81.195 25.38C81.507 25.38 81.819 25.296 82.131 25.128C82.443 24.96 82.701 24.72 82.905 24.408C83.121 24.096 83.229 23.748 83.229 23.364V22.878ZM94.1308 21.87C93.4828 24.15 92.9908 25.86 92.6548 27H89.7208L86.9128 17.802H89.6308L91.2148 23.49H91.3228C91.6348 22.386 91.8748 21.558 92.0428 21.006L92.9608 17.802H95.5888L97.1908 23.49H97.2988C98.0188 20.97 98.5528 19.074 98.9008 17.802H101.457L98.6488 27H95.7508L94.2388 21.87H94.1308ZM104.648 19.152C105.404 18.132 106.382 17.622 107.582 17.622C108.518 17.622 109.286 17.874 109.886 18.378C110.498 18.882 110.804 19.614 110.804 20.574V27H108.176V21.15C108.176 20.682 108.038 20.298 107.762 19.998C107.498 19.686 107.156 19.53 106.736 19.53C106.268 19.53 105.866 19.71 105.53 20.07C105.194 20.418 105.026 20.844 105.026 21.348V27H102.398V17.802H104.36L104.648 19.152ZM112.761 14.04H115.425V16.11H112.761V14.04ZM112.779 27V17.802H115.407V27H112.779ZM119.678 23.274C119.678 23.874 119.834 24.378 120.146 24.786C120.458 25.182 120.878 25.38 121.406 25.38C121.958 25.38 122.39 25.212 122.702 24.876C123.026 24.528 123.188 24.018 123.188 23.346H125.672C125.672 24.198 125.486 24.912 125.114 25.488C124.754 26.064 124.274 26.49 123.674 26.766C123.074 27.042 122.414 27.18 121.694 27.18H121.406C120.062 27.18 118.994 26.784 118.202 25.992C117.41 25.188 117.014 24.078 117.014 22.662V22.14C117.014 21.204 117.2 20.4 117.572 19.728C117.956 19.044 118.478 18.522 119.138 18.162C119.798 17.802 120.554 17.622 121.406 17.622H121.694C122.402 17.622 123.056 17.778 123.656 18.09C124.268 18.39 124.754 18.834 125.114 19.422C125.486 19.998 125.672 20.682 125.672 21.474H123.062C123.062 20.85 122.924 20.352 122.648 19.98C122.372 19.608 121.964 19.422 121.424 19.422C120.884 19.422 120.458 19.638 120.146 20.07C119.834 20.49 119.678 21.024 119.678 21.672V23.274ZM126.741 27V26.1L130.665 19.602H126.975V17.802H134.139V18.684L130.197 25.2H134.283V27H126.741ZM144.207 23.562C144.207 24.366 144.015 25.044 143.631 25.596C143.247 26.136 142.737 26.538 142.101 26.802C141.477 27.054 140.793 27.18 140.049 27.18H139.761C138.909 27.18 138.141 27 137.457 26.64C136.773 26.28 136.233 25.764 135.837 25.092C135.453 24.408 135.261 23.598 135.261 22.662V22.14C135.261 21.216 135.459 20.412 135.855 19.728C136.251 19.044 136.785 18.522 137.457 18.162C138.141 17.802 138.909 17.622 139.761 17.622H140.049C140.793 17.622 141.483 17.778 142.119 18.09C142.755 18.39 143.265 18.834 143.649 19.422C144.033 19.998 144.225 20.682 144.225 21.474V22.842H137.925V23.274C137.925 23.874 138.099 24.378 138.447 24.786C138.807 25.182 139.293 25.38 139.905 25.38C140.457 25.38 140.889 25.23 141.201 24.93C141.525 24.618 141.687 24.162 141.687 23.562H144.207ZM139.779 19.422C139.251 19.422 138.819 19.608 138.483 19.98C138.159 20.352 137.973 20.826 137.925 21.402H141.561C141.561 20.79 141.417 20.31 141.129 19.962C140.853 19.602 140.403 19.422 139.779 19.422ZM151.659 27L149.481 23.994L148.455 24.984V27H145.827V14.04H148.455V22.086L151.677 17.802H154.647L151.263 22.122L154.791 27H151.659Z" fill="#282725" opacity="0.9" />
</svg>
